# xmcd
#
# Track frame offsets:
# 150
# 26819
# 53059
# 74598
# 95921
# 118417
# 145176
# 165031
# 189841
# 210702
# 232809
# 254781
# 283338
#
# Disc length: 4525 seconds
#
#
# Revision: 4
# Processed by: cddbd v1.5.2PL0 Copyright (c) Steve Scherf et al.
# Submitted via: FreeRIP 2.942 
#
DISCID=c611ab0d
DTITLE=Santana - Supernatural
DYEAR=2001
DGENRE=Blues
TTITLE0=(Da Le) Yaleo
TTITLE1=Love of My Life feat. Dave Matthews
TTITLE2=Put Your Lights On feat. Everlast
TTITLE3=Africa Bamba
TTITLE4=Smooth feat. Rob Thomas
TTITLE5=Do You Like the Way feat. Lauryn Hill and Cee-Lo
TTITLE6=Maria Maria
TTITLE7=Migra
TTITLE8=Corazon Espinado feat. Mana
TTITLE9=Wishing It Was feat. Eagle-Eye Cherry
TTITLE10=El Farol
TTITLE11=Primavera
TTITLE12=The Calling feat. Eric Clapton
EXTD=YEAR: 2001 ID3G:   0
EXTT0=
EXTT1=
EXTT2=
EXTT3=
EXTT4=
EXTT5=
EXTT6=
EXTT7=
EXTT8=
EXTT9=
EXTT10=
EXTT11=
EXTT12=
PLAYORDER=
